<?xml version="1.0" encoding="UTF-8" standalone="no"?>
<svg
   xmlns:dc="http://purl.org/dc/elements/1.1/"
   xmlns:cc="http://creativecommons.org/ns#"
   xmlns:rdf="http://www.w3.org/1999/02/22-rdf-syntax-ns#"
   xmlns:svg="http://www.w3.org/2000/svg"
   xmlns="http://www.w3.org/2000/svg"
   xmlns:sodipodi="http://sodipodi.sourceforge.net/DTD/sodipodi-0.dtd"
   xmlns:inkscape="http://www.inkscape.org/namespaces/inkscape"
   viewBox="0 0 64 64"
   version="1.1"
   id="svg859"
   sodipodi:docname="favicon.raw.svg"
   inkscape:export-filename="/Users/seanmcp/Documents/hammer-and-wrench-bw.png"
   inkscape:export-xdpi="96"
   inkscape:export-ydpi="96"
   width="64"
   height="64"
   inkscape:version="1.0rc1 (09960d6, 2020-04-09)">
  <metadata
     id="metadata865">
    <rdf:RDF>
      <cc:Work
         rdf:about="">
        <dc:format>image/svg+xml</dc:format>
        <dc:type
           rdf:resource="http://purl.org/dc/dcmitype/StillImage" />
        <dc:title></dc:title>
      </cc:Work>
    </rdf:RDF>
  </metadata>
  <defs
     id="defs863" />
  <sodipodi:namedview
     inkscape:document-rotation="0"
     pagecolor="#ffffff"
     bordercolor="#666666"
     borderopacity="1"
     objecttolerance="10"
     gridtolerance="10"
     guidetolerance="10"
     inkscape:pageopacity="0"
     inkscape:pageshadow="2"
     inkscape:window-width="1792"
     inkscape:window-height="1075"
     id="namedview861"
     showgrid="false"
     inkscape:zoom="7.2089442"
     inkscape:cx="7.282076"
     inkscape:cy="14.901184"
     inkscape:window-x="0"
     inkscape:window-y="23"
     inkscape:window-maximized="1"
     inkscape:current-layer="svg859" />
  <path
     id="path858"
     style="fill:#ffffff;fill-opacity:1;stroke:#ffffff;stroke-width:4.74465;stroke-miterlimit:4;stroke-dasharray:none;stroke-opacity:1"
     d="m 49.548392,3.8390377 c -6.673942,0 -12.082605,5.4086624 -12.082605,12.0809433 0,0.937424 0.118617,1.846736 0.319671,2.723192 L 32.027471,24.40116 26.11635,18.490039 c 0,0 -1.647461,-4.942382 1.647461,-8.237422 3.29504,-3.2949219 4.942382,-3.2949219 8.237422,-3.2949219 3.294921,0 1.647461,-1.64746 1.647461,-1.64746 0,0 -9.884883,-4.94238258 -18.122187,3.294921 l -4.941789,4.9417889 c -2.38e-4,2.37e-4 -4.75e-4,3.56e-4 -7.12e-4,5.93e-4 -2.37e-4,2.37e-4 -3.56e-4,4.75e-4 -5.93e-4,7.12e-4 L 7.9941634,20.1375 c 0,0 -1.647461,-1.647461 -3.294921,0 l -1.6474607,1.647461 c 0,0 -1.6474607,1.64746 0,3.294921 l 6.5898427,6.589962 c 0,0 1.6474606,1.64746 3.2949206,0 l 1.647461,-1.64758 c 0,0 1.647579,-1.647342 0,-3.294921 l -0.128461,-0.128462 c 1.2686,-1.224119 3.16812,-2.47125 5.070962,-1.518999 l 5.96948,5.969599 -18.1822066,18.180783 c -2.4629464,2.464608 -2.4629464,6.459721 0,8.924329 2.466269,2.462947 6.4597206,2.462947 8.9243286,0 L 34.418892,39.972268 53.111861,58.665236 c 1.920989,1.920989 4.978678,2.011612 6.789236,0.199394 1.812219,-1.812219 1.721596,-4.868248 -0.199394,-6.789237 L 41.064248,33.437937 46.821761,27.681254 c 0.878116,0.201055 1.785886,0.319671 2.72497,0.319671 6.672282,0 12.080944,-5.408662 12.080944,-12.080944 0,-1.367408 -1.380574,-3.16812 -2.886407,-1.662287 l -4.51738,4.51904 c 0,0 -3.013208,1.505715 -6.024756,-1.507493 -3.013208,-3.011547 -1.507493,-6.024755 -1.507493,-6.024755 L 51.21068,6.7254451 C 52.718055,5.2196121 50.907615,3.8390377 49.548392,3.8390377 Z M 11.814673,51.406516 c 1.34926,0 2.441478,1.093879 2.441478,2.443257 0,1.347599 -1.092218,2.441478 -2.441478,2.441478 -1.34926,0 -2.4415956,-1.093879 -2.4415956,-2.441478 0,-1.347718 1.0939966,-2.443257 2.4415956,-2.443257 z"
     inkscape:connector-curvature="0" />
  <g
     transform="matrix(0.01647448,0,0,0.01647448,2.345943,3.8360046)"
     id="g877">
    <path
       inkscape:connector-curvature="0"
       style="fill:#b2b2b2;fill-opacity:1;stroke-width:100.002"
       id="path853"
       d="m 3424.7968,632.40974 -274.2043,274.30423 c 0,0 -182.9028,91.40141 -365.7056,-91.50141 -182.9028,-182.80282 -91.5014,-365.70563 -91.5014,-365.70563 L 2967.6897,175.2027 C 3059.1911,83.801291 2949.2894,0 2866.7882,0 c -405.1063,0 -733.4113,328.30506 -733.4113,733.3113 0,56.90088 7.2001,112.10173 19.4003,165.30255 l -619.9096,619.90955 548.5085,548.5084 619.9095,-619.8095 c 53.3008,12.2002 108.4017,19.4003 165.4026,19.4003 405.0062,0 733.3113,-328.3051 733.3113,-733.3113 0.1,-83.00128 -83.8013,-192.30296 -175.2027,-100.90156 z M 1522.0675,1536.4237 303.14867,2755.2425 c -149.5023,149.6023 -149.5023,392.106 0,541.7083 149.70231,149.5023 392.10604,149.5023 541.70835,0 L 2063.5758,2078.132 Z M 576.35288,3183.8491 c -81.90126,0 -148.20228,-66.4011 -148.20228,-148.2023 0,-81.8013 66.40102,-148.3023 148.20228,-148.3023 81.90126,0 148.20228,66.401 148.20228,148.3023 0,81.8012 -66.30102,148.2023 -148.20228,148.2023 z"
       fill="#8899A6" />
    <path
       inkscape:connector-curvature="0"
       style="fill:#e5e5e5;fill-opacity:1;stroke-width:100.002"
       id="path855"
       d="m 3083.0915,3327.9513 c 116.6018,116.6018 302.2047,122.1019 412.1064,12.1002 110.0016,-110.0017 104.5016,-295.5046 -12.1002,-412.1064 L 1156.5618,601.40927 C 1039.86,484.70747 854.45716,479.30738 744.45547,589.30908 634.45378,699.31077 639.95386,884.81363 756.55566,1001.4154 Z"
       fill="#F4900C" />
    <path
       inkscape:connector-curvature="0"
       style="fill:#808080;fill-opacity:1;stroke-width:100.002"
       id="path857"
       d="m 2144.477,89.301376 c 0,0 -600.0092,-300.004626 -1100.0169,200.003084 L 344.44931,989.31524 c 0,0 -100.00154,-100.00154 -200.00308,0 L 44.444685,1089.3168 c 0,0 -100.001541,100.0015 0,200.0031 L 444.45085,1689.326 c 0,0 100.00154,100.0016 200.00308,0 l 100.00154,-100.0015 c 0,0 100.00154,-100.0016 0,-200.0031 l -7.80012,-7.8001 c 77.00119,-74.3012 192.30296,-150.0023 307.80475,-92.2014 l 400.0062,-400.0062 c 0,0 -100.0016,-300.00462 100.0015,-500.0077 200.0031,-200.00308 300.0046,-200.00308 500.0077,-200.00308 200.0031,0 100.0015,-100.001544 100.0015,-100.001544 z"
       fill="#66757F" />
  </g>
</svg>
